<mxfile host="app.diagrams.net" modified="2024-05-25T11:05:56.733Z" agent="Mozilla/5.0 (Windows NT 10.0; Win64; x64) AppleWebKit/537.36 (KHTML, like Gecko) Chrome/125.0.0.0 Safari/537.36" etag="zFX4qeX0QEXh_Jf32ITt" version="24.4.8" type="github">
  <diagram name="페이지-1" id="SCZd--IrIVVPd145KPRW">
    <mxGraphModel dx="712" dy="1187" grid="0" gridSize="10" guides="1" tooltips="1" connect="1" arrows="1" fold="1" page="0" pageScale="1" pageWidth="827" pageHeight="1169" math="0" shadow="0">
      <root>
        <mxCell id="0" />
        <mxCell id="1" parent="0" />
        <mxCell id="UKU5RorOPV4T0jWpBKqR-1" value="사용자" style="shape=umlActor;verticalLabelPosition=bottom;verticalAlign=top;html=1;" vertex="1" parent="1">
          <mxGeometry x="37" y="49" width="35" height="70" as="geometry" />
        </mxCell>
        <mxCell id="UKU5RorOPV4T0jWpBKqR-4" value="도서관리 시스템" style="fontStyle=0;html=1;whiteSpace=wrap;" vertex="1" parent="1">
          <mxGeometry x="205" y="64" width="120" height="40" as="geometry" />
        </mxCell>
        <mxCell id="UKU5RorOPV4T0jWpBKqR-9" value="" style="triangle;aspect=fixed;fillColor=strokeColor;" vertex="1" parent="1">
          <mxGeometry x="177" y="66" width="6" height="12" as="geometry" />
        </mxCell>
        <mxCell id="UKU5RorOPV4T0jWpBKqR-10" value="" style="endArrow=none;html=1;rounded=0;align=center;verticalAlign=bottom;labelBackgroundColor=none;fontSize=12;startSize=8;endSize=8;curved=1;entryX=0;entryY=0.5;entryDx=0;entryDy=0;" edge="1" parent="1" source="UKU5RorOPV4T0jWpBKqR-1" target="UKU5RorOPV4T0jWpBKqR-4">
          <mxGeometry relative="1" as="geometry">
            <mxPoint x="101" y="176" as="sourcePoint" />
            <mxPoint x="241" y="176" as="targetPoint" />
          </mxGeometry>
        </mxCell>
        <mxCell id="UKU5RorOPV4T0jWpBKqR-12" value="1. 로그인" style="text;html=1;align=center;verticalAlign=middle;resizable=0;points=[];autosize=1;strokeColor=none;fillColor=none;fontSize=16;" vertex="1" parent="1">
          <mxGeometry x="92" y="56.5" width="84" height="31" as="geometry" />
        </mxCell>
        <mxCell id="UKU5RorOPV4T0jWpBKqR-14" value="연체자 목록" style="fontStyle=0;html=1;whiteSpace=wrap;" vertex="1" parent="1">
          <mxGeometry x="491" y="-118" width="120" height="40" as="geometry" />
        </mxCell>
        <mxCell id="UKU5RorOPV4T0jWpBKqR-15" value="" style="triangle;aspect=fixed;fillColor=strokeColor;rotation=-40;" vertex="1" parent="1">
          <mxGeometry x="450" y="-92" width="6" height="12" as="geometry" />
        </mxCell>
        <mxCell id="UKU5RorOPV4T0jWpBKqR-16" value="" style="endArrow=none;html=1;rounded=0;align=center;verticalAlign=bottom;labelBackgroundColor=none;fontSize=12;startSize=8;endSize=8;curved=1;entryX=0;entryY=0.5;entryDx=0;entryDy=0;exitX=1;exitY=0;exitDx=0;exitDy=0;" edge="1" parent="1" target="UKU5RorOPV4T0jWpBKqR-14" source="UKU5RorOPV4T0jWpBKqR-4">
          <mxGeometry relative="1" as="geometry">
            <mxPoint x="308" y="-16" as="sourcePoint" />
            <mxPoint x="505" y="7.5" as="targetPoint" />
          </mxGeometry>
        </mxCell>
        <mxCell id="UKU5RorOPV4T0jWpBKqR-17" value="2. 대출가능여부 확인" style="text;html=1;align=center;verticalAlign=middle;resizable=0;points=[];autosize=1;strokeColor=none;fillColor=none;fontSize=16;rotation=-45;" vertex="1" parent="1">
          <mxGeometry x="308" y="-44" width="168" height="31" as="geometry" />
        </mxCell>
        <mxCell id="UKU5RorOPV4T0jWpBKqR-19" value="도서 반납 시스템" style="fontStyle=0;html=1;whiteSpace=wrap;" vertex="1" parent="1">
          <mxGeometry x="287" y="272" width="120" height="40" as="geometry" />
        </mxCell>
        <mxCell id="UKU5RorOPV4T0jWpBKqR-20" value="" style="triangle;aspect=fixed;fillColor=strokeColor;rotation=45;" vertex="1" parent="1">
          <mxGeometry x="243" y="226" width="6" height="12" as="geometry" />
        </mxCell>
        <mxCell id="UKU5RorOPV4T0jWpBKqR-21" value="" style="endArrow=none;html=1;rounded=0;align=center;verticalAlign=bottom;labelBackgroundColor=none;fontSize=12;startSize=8;endSize=8;curved=1;entryX=0;entryY=0.5;entryDx=0;entryDy=0;" edge="1" parent="1" target="UKU5RorOPV4T0jWpBKqR-19">
          <mxGeometry relative="1" as="geometry">
            <mxPoint x="72" y="86" as="sourcePoint" />
            <mxPoint x="529" y="185" as="targetPoint" />
          </mxGeometry>
        </mxCell>
        <mxCell id="UKU5RorOPV4T0jWpBKqR-22" value="4. 도서 반납" style="text;html=1;align=center;verticalAlign=middle;resizable=0;points=[];autosize=1;strokeColor=none;fillColor=none;fontSize=16;rotation=45;" vertex="1" parent="1">
          <mxGeometry x="154" y="174" width="104" height="31" as="geometry" />
        </mxCell>
        <mxCell id="UKU5RorOPV4T0jWpBKqR-23" value="도서 대출 시스템" style="fontStyle=0;html=1;whiteSpace=wrap;" vertex="1" parent="1">
          <mxGeometry x="913" y="-118" width="120" height="40" as="geometry" />
        </mxCell>
        <mxCell id="UKU5RorOPV4T0jWpBKqR-24" value="" style="triangle;aspect=fixed;fillColor=strokeColor;rotation=0;" vertex="1" parent="1">
          <mxGeometry x="901" y="-116" width="6" height="12" as="geometry" />
        </mxCell>
        <mxCell id="UKU5RorOPV4T0jWpBKqR-25" value="" style="endArrow=none;html=1;rounded=0;align=center;verticalAlign=bottom;labelBackgroundColor=none;fontSize=12;startSize=8;endSize=8;curved=1;entryX=0;entryY=0.5;entryDx=0;entryDy=0;exitX=1;exitY=0.5;exitDx=0;exitDy=0;" edge="1" parent="1" target="UKU5RorOPV4T0jWpBKqR-23">
          <mxGeometry relative="1" as="geometry">
            <mxPoint x="611" y="-98" as="sourcePoint" />
            <mxPoint x="815" y="3" as="targetPoint" />
          </mxGeometry>
        </mxCell>
        <mxCell id="UKU5RorOPV4T0jWpBKqR-26" value="3. [연체정보가 없는 경우]도서 대출" style="text;html=1;align=center;verticalAlign=middle;resizable=0;points=[];autosize=1;strokeColor=none;fillColor=none;fontSize=16;rotation=0;" vertex="1" parent="1">
          <mxGeometry x="624" y="-125.5" width="266" height="31" as="geometry" />
        </mxCell>
      </root>
    </mxGraphModel>
  </diagram>
</mxfile>
